<svg width="1920" height="936" xmlns="http://www.w3.org/2000/svg" xmlns:xlink="http://www.w3.org/1999/xlink" stroke="#000000" stroke-linecap="square" stroke-miterlimit="10" font-family="Dialog" font-weight="400" font-size="12" overflow="hidden"><defs id="genericDefs"></defs><g><defs id="defs1"><clipPath id="clipPath1"><path d="M0 0 1920 0 1920 936 0 936 0 0Z"/></clipPath></defs><g stroke="#FFFFFF" fill="#FFFFFF"><rect x="0" y="0" width="1920" height="936" stroke="none" clip-path="url(#clipPath1)"/></g><g stroke="#FFFFFF" fill="#FFFFFF"><rect x="0" y="0" width="1920" height="936" stroke="none"/><path d="M250 833 1738 833 1738 70 250 70Z" stroke="none"/></g><g stroke="#262626" stroke-width="0.8333" stroke-linejoin="round" fill="#262626"><line x1="250" y1="833" x2="1738" y2="833" fill="none"/><line x1="250" y1="70" x2="1738" y2="70" fill="none"/><line x1="250" y1="833" x2="250" y2="818.12" fill="none"/><line x1="398.8" y1="833" x2="398.8" y2="818.12" fill="none"/><line x1="547.6" y1="833" x2="547.6" y2="818.12" fill="none"/><line x1="696.4" y1="833" x2="696.4" y2="818.12" fill="none"/><line x1="845.2" y1="833" x2="845.2" y2="818.12" fill="none"/><line x1="994" y1="833" x2="994" y2="818.12" fill="none"/><line x1="1142.8" y1="833" x2="1142.8" y2="818.12" fill="none"/><line x1="1291.6" y1="833" x2="1291.6" y2="818.12" fill="none"/><line x1="1440.4" y1="833" x2="1440.4" y2="818.12" fill="none"/><line x1="1589.2" y1="833" x2="1589.2" y2="818.12" fill="none"/><line x1="1738" y1="833" x2="1738" y2="818.12" fill="none"/><line x1="250" y1="70" x2="250" y2="84.88" fill="none"/><line x1="398.8" y1="70" x2="398.8" y2="84.88" fill="none"/><line x1="547.6" y1="70" x2="547.6" y2="84.88" fill="none"/><line x1="696.4" y1="70" x2="696.4" y2="84.88" fill="none"/><line x1="845.2" y1="70" x2="845.2" y2="84.88" fill="none"/><line x1="994" y1="70" x2="994" y2="84.88" fill="none"/><line x1="1142.8" y1="70" x2="1142.8" y2="84.88" fill="none"/><line x1="1291.6" y1="70" x2="1291.6" y2="84.88" fill="none"/><line x1="1440.4" y1="70" x2="1440.4" y2="84.88" fill="none"/><line x1="1589.2" y1="70" x2="1589.2" y2="84.88" fill="none"/><line x1="1738" y1="70" x2="1738" y2="84.88" fill="none"/></g><g stroke="#262626" fill="#262626" font-family="SansSerif" font-size="30" transform="translate(250 842.333)"><text stroke="none" xml:space="preserve" x="-8.5" y="31">0</text></g><g stroke="#262626" fill="#262626" font-family="SansSerif" font-size="30" transform="translate(398.8 842.333)"><text stroke="none" xml:space="preserve" x="-8.5" y="31">1</text></g><g stroke="#262626" fill="#262626" font-family="SansSerif" font-size="30" transform="translate(547.6 842.333)"><text stroke="none" xml:space="preserve" x="-8.5" y="31">2</text></g><g stroke="#262626" fill="#262626" font-family="SansSerif" font-size="30" transform="translate(696.4 842.333)"><text stroke="none" xml:space="preserve" x="-8.5" y="31">3</text></g><g stroke="#262626" fill="#262626" font-family="SansSerif" font-size="30" transform="translate(845.2 842.333)"><text stroke="none" xml:space="preserve" x="-8.5" y="31">4</text></g><g stroke="#262626" fill="#262626" font-family="SansSerif" font-size="30" transform="translate(994 842.333)"><text stroke="none" xml:space="preserve" x="-8.5" y="31">5</text></g><g stroke="#262626" fill="#262626" font-family="SansSerif" font-size="30" transform="translate(1142.8 842.333)"><text stroke="none" xml:space="preserve" x="-8.5" y="31">6</text></g><g stroke="#262626" fill="#262626" font-family="SansSerif" font-size="30" transform="translate(1291.6 842.333)"><text stroke="none" xml:space="preserve" x="-8.5" y="31">7</text></g><g stroke="#262626" fill="#262626" font-family="SansSerif" font-size="30" transform="translate(1440.4 842.333)"><text stroke="none" xml:space="preserve" x="-8.5" y="31">8</text></g><g stroke="#262626" fill="#262626" font-family="SansSerif" font-size="30" transform="translate(1589.2 842.333)"><text stroke="none" xml:space="preserve" x="-8.5" y="31">9</text></g><g stroke="#262626" fill="#262626" font-family="SansSerif" font-size="30" transform="translate(1738 842.333)"><text stroke="none" xml:space="preserve" x="-17" y="31">10</text></g><g stroke="#262626" fill="#262626" font-family="SansSerif" font-size="40" transform="translate(994.001 882)"><text stroke="none" xml:space="preserve" x="-61.5" y="41">time(s)</text></g><g stroke="#262626" stroke-width="0.8333" stroke-linejoin="round" fill="#262626"><line x1="250" y1="833" x2="250" y2="70" fill="none"/><line x1="1738" y1="833" x2="1738" y2="70" fill="none"/><line x1="250" y1="833" x2="264.88" y2="833" fill="none"/><line x1="250" y1="724" x2="264.88" y2="724" fill="none"/><line x1="250" y1="615" x2="264.88" y2="615" fill="none"/><line x1="250" y1="506" x2="264.88" y2="506" fill="none"/><line x1="250" y1="397" x2="264.88" y2="397" fill="none"/><line x1="250" y1="288" x2="264.88" y2="288" fill="none"/><line x1="250" y1="179" x2="264.88" y2="179" fill="none"/><line x1="250" y1="70" x2="264.88" y2="70" fill="none"/><line x1="1738" y1="833" x2="1723.12" y2="833" fill="none"/><line x1="1738" y1="724" x2="1723.12" y2="724" fill="none"/><line x1="1738" y1="615" x2="1723.12" y2="615" fill="none"/><line x1="1738" y1="506" x2="1723.12" y2="506" fill="none"/><line x1="1738" y1="397" x2="1723.12" y2="397" fill="none"/><line x1="1738" y1="288" x2="1723.12" y2="288" fill="none"/><line x1="1738" y1="179" x2="1723.12" y2="179" fill="none"/><line x1="1738" y1="70" x2="1723.12" y2="70" fill="none"/></g><g stroke="#262626" fill="#262626" font-family="SansSerif" font-size="30" transform="translate(240.667 833)"><text stroke="none" xml:space="preserve" x="-17" y="12">0</text></g><g stroke="#262626" fill="#262626" font-family="SansSerif" font-size="30" transform="translate(240.667 724)"><text stroke="none" xml:space="preserve" x="-34" y="12">10</text></g><g stroke="#262626" fill="#262626" font-family="SansSerif" font-size="30" transform="translate(240.667 615)"><text stroke="none" xml:space="preserve" x="-34" y="12">20</text></g><g stroke="#262626" fill="#262626" font-family="SansSerif" font-size="30" transform="translate(240.667 506)"><text stroke="none" xml:space="preserve" x="-34" y="12">30</text></g><g stroke="#262626" fill="#262626" font-family="SansSerif" font-size="30" transform="translate(240.667 397)"><text stroke="none" xml:space="preserve" x="-34" y="12">40</text></g><g stroke="#262626" fill="#262626" font-family="SansSerif" font-size="30" transform="translate(240.667 288)"><text stroke="none" xml:space="preserve" x="-34" y="12">50</text></g><g stroke="#262626" fill="#262626" font-family="SansSerif" font-size="30" transform="translate(240.667 179)"><text stroke="none" xml:space="preserve" x="-34" y="12">60</text></g><g stroke="#262626" fill="#262626" font-family="SansSerif" font-size="30" transform="translate(240.667 70)"><text stroke="none" xml:space="preserve" x="-34" y="12">70</text></g><g stroke="#262626" fill="#262626" font-family="SansSerif" font-size="40" transform="matrix(6.12323e-17 -1 1 6.12323e-17 201.667 451.5)"><text stroke="none" xml:space="preserve" x="-106" y="-9">current(mA)</text></g><g stroke="#0072BD" stroke-width="6.6667" stroke-linecap="butt" stroke-linejoin="round" fill="#0072BD"><path d="M258.585 213.254 259.539 199.936 260.492 177.834 261.446 198.349 262.4 172.468 263.354 188.852 264.308 175.97 265.262 181.637 266.215 178.838 267.169 177.619 268.123 180.891 269.077 177.428 270.031 180.235 270.985 178.669 271.939 178.87 272.892 178.806 273.846 178.017 274.8 179.656 275.754 178.873 276.708 180.247 277.661 177.652 278.615 179.243 279.569 178.775 280.523 179.103 281.477 178.945 282.431 178.68 283.385 179.858 284.339 178.146 285.292 179.312 286.246 178.802 287.2 177.95 288.154 179.475 289.108 178.919 290.062 178.973 291.015 179.108 291.969 178.902 292.923 178.93 293.877 178.931 294.831 179.517 295.785 178.54 296.738 178.813 297.692 179.734 298.646 179.259 299.6 178.623 300.554 178.329 301.508 179.083 302.461 178.628 303.415 178.89 304.369 179.291 305.323 178.843 306.277 178.544 307.231 177.823 308.185 179.905 309.138 178.909 310.092 178.665 311.046 179.54 312 178.966 312.954 178.712 313.908 179.117 314.862 179.023 315.815 179.158 316.769 178.895 317.723 179.455 318.677 178.913 319.631 179.038 320.585 178.485 321.539 178.775 322.492 179.905 323.446 179.119 324.4 178.713 325.354 179.165 326.308 178.937 327.262 178.815 328.215 227.282 329.169 383.566 330.123 514.57 331.077 613.274 332.031 668.912 332.985 713.416 333.939 739.716 334.892 761.812 335.846 774.997 336.8 785.076 337.754 793.809 338.708 799.238 339.661 804.106 340.615 807.13 341.569 810.129 342.523 811.993 343.477 813.862 344.431 814.802 345.385 815.898 346.339 817.12 347.292 817.536 348.246 818.352 349.2 818.949 350.154 819.435 351.108 819.443 352.061 819.792 353.015 819.891 353.969 820.076 354.923 820.645 355.877 820.736 356.831 820.679 357.785 820.638 358.738 821.031 359.692 821.026 360.646 821.071 361.6 821.369 362.554 821.469 363.508 821.327 364.461 821.394 365.415 821.67 366.369 821.51 367.323 821.471 368.277 821.48 369.231 821.937 370.185 821.682 371.138 821.772 372.092 822.238 373.046 821.849 374 821.852 374.954 822.164 375.908 821.833 376.862 821.821 377.815 821.586 378.769 821.696 379.723 821.64 380.677 821.796 381.631 822.009 382.585 822.064 383.539 822.086 384.492 822.113 385.446 822.101 386.4 821.797 387.354 821.949 388.308 822.342 389.262 821.81 390.215 822.094 391.169 822.415 392.123 822.205 393.077 821.771 394.031 821.892 394.985 822.091 395.938 822.007 396.892 821.957 397.846 821.787 398.8 821.862 399.754 821.821 400.708 821.772 401.661 822.034 402.615 822.348 403.569 822.218 404.523 821.822 405.477 821.983 406.431 821.82 407.385 821.88 408.339 822.289 409.292 822.475 410.246 822.049 411.2 822.264 412.154 822.029 413.108 822.134 414.061 822.15 415.015 822.307 415.969 822.349 416.923 822.269 417.877 821.847 418.831 822.169 419.785 821.972 420.738 822.021 421.692 822.114 422.646 822.136 423.6 822.036 424.554 822.161 425.508 822.504 426.461 822.247 427.415 822.08 428.369 822.295 429.323 822.442 430.277 822.151 431.231 821.917 432.185 822.207 433.138 821.935 434.092 821.928 435.046 822.212 436 822.192 436.954 821.934 437.908 822.102 438.862 822.099 439.815 821.779 440.769 821.803 441.723 822.21 442.677 822.094 443.631 822.035 444.585 822.174 445.539 822.138 446.492 822.07 447.446 822.138 448.4 821.809 449.354 822.036 450.308 822.365 451.262 822.275 452.215 822.123 453.169 822.443 454.123 822.313 455.077 822.291 456.031 822.35 456.985 821.948 457.939 821.985 458.892 822.171 459.846 821.932 460.8 821.604 461.754 822.247 462.708 822.177 463.661 822.346 464.615 821.971 465.569 822.201 466.523 822.181 467.477 822.326 468.431 822.198 469.385 821.99 470.339 822.443 471.292 822.455 472.246 821.92 473.2 822.106 474.154 822.093 475.108 821.651 476.061 822.166 477.015 822.539 477.969 822.484 478.923 822.253 479.877 822.127 480.831 822.144 481.785 822.134 482.738 822.187 483.692 822.085 484.646 822.091 485.6 822.687 486.554 822.047 487.508 822.327 488.461 822.549 489.415 822.362 490.369 822.151 491.323 822.31 492.277 822.33 493.231 821.997 494.185 822.239 495.138 822.239 496.092 821.922 497.046 822.224 498 822.29 498.954 822.433 499.908 822.081 500.862 822.099 501.815 821.976 502.769 822.298 503.723 822.757 504.677 822.313 505.631 822.24 506.585 822.244 507.539 822.047 508.492 822.053 509.446 822.37 510.4 822.65 511.354 822.425 512.308 822.52 513.261 822.142 514.215 822.083 515.169 822.261 516.123 822.156 517.077 822.043 518.031 822.423 518.985 822.376 519.938 821.976 520.892 822.407 521.846 822.346 522.8 822.468 523.754 822.393 524.708 822.118 525.662 822.346 526.615 822.29 527.569 822.296 528.523 822.058 529.477 822.235 530.431 822.452 531.385 822.134 532.338 822.191 533.292 822.306 534.246 822.326 535.2 822.542 536.154 822.461 537.108 822.198 538.062 822.24 539.015 822.632 539.969 822.293 540.923 821.75 541.877 822.445 542.831 822.627 543.785 822.351 544.739 822.392 545.692 822.347 546.646 821.867 547.6 822.143 548.554 822.232 549.508 822.129 550.461 822.226 551.415 822.084 552.369 821.578 553.323 821.714 554.277 822.22 555.231 819.889 556.185 635.013 557.138 391.79 558.092 372.338 559.046 259.295 560 252.803 560.954 214.477 561.908 201.452 562.862 198.798 563.815 181.005 564.769 190.418 565.723 178.296 566.677 183.264 567.631 179.362 568.585 180.116 569.539 180.068 570.492 178.74 571.446 179.648 572.4 178.998 573.354 178.624 574.308 178.945 575.261 179.389 576.215 178.866 577.169 179.367 578.123 178.557 579.077 179.486 580.031 178.653 580.985 178.984 581.938 179.171 582.892 178.264 583.846 179.723 584.8 178.416 585.754 179.391 586.708 179.269 587.662 178.188 588.615 178.703 589.569 178.936 590.523 178.559 591.477 179.486 592.431 179.047 593.385 179.184 594.339 178.824 595.292 179.254 596.246 179.067 597.2 178.379 598.154 179.902 599.108 178.248 600.062 179.162 601.015 178.441 601.969 179.066 602.923 179.26 603.877 179.575 604.831 179.202 605.785 179.655 606.739 179.012 607.692 177.599 608.646 179.582 609.6 178.222 610.554 179.558 611.508 178.139 612.461 179.387 613.415 178.355 614.369 178.217 615.323 178.971 616.277 179.139 617.231 179.324 618.185 178.959 619.138 180.152 620.092 177.71 621.046 179.654 622 178.671 622.954 178.811 623.908 179.107 624.862 210.508 625.815 354.885 626.769 515.099 627.723 601.924 628.677 669.334 629.631 708.507 630.585 736.148 631.539 759.313 632.492 773.429 633.446 784.763 634.4 792.807 635.354 799.377 636.308 803.557 637.261 806.989 638.215 809.948 639.169 811.918 640.123 813.411 641.077 814.498 642.031 816.182 642.985 817.17 643.938 817.831 644.892 818.045 645.846 818.465 646.8 819.074 647.754 819.663 648.708 820.036 649.661 820.362 650.615 820.45 651.569 820.394 652.523 820.675 653.477 820.745 654.431 821.06 655.385 821.595 656.338 821.254 657.292 821.455 658.246 821.622 659.2 821.199 660.154 821.31 661.108 821.8 662.062 821.856 663.015 821.522 663.969 821.731 664.923 821.395 665.877 821.414 666.831 821.888 667.785 821.732 668.739 821.737 669.692 822.195 670.646 822.116 671.6 821.654 672.554 821.884 673.508 822.006 674.461 821.698 675.415 821.925 676.369 822.022 677.323 821.669 678.277 821.583 679.231 822.277 680.185 822.296 681.138 821.972 682.092 822.352 683.046 822.272 684 822.209 684.954 822.018 685.908 822.189 686.862 822 687.815 822.125 688.769 822.103 689.723 821.834 690.677 822.163 691.631 822.198 692.585 821.883 693.539 822.128 694.492 822.448 695.446 822.601 696.4 822.488 697.354 822.1 698.308 821.816 699.261 822.02 700.215 821.968 701.169 821.9 702.123 822.493 703.077 822.633 704.031 822.327 704.985 822.432 705.938 822.447 706.892 821.946 707.846 821.905 708.8 822.525 709.754 822.232 710.708 822.32 711.662 822.549 712.615 822.234 713.569 822.172 714.523 822.422 715.477 822.473 716.431 822.204 717.385 822.256 718.338 822.101 719.292 822.088 720.246 822.335 721.2 822.188 722.154 822.332 723.108 822.589 724.062 822.502 725.015 822.034 725.969 822.317 726.923 822.263 727.877 822.245 728.831 822.331 729.785 822.431 730.739 822.333 731.692 822.538 732.646 822.241 733.6 822.124 734.554 822.119 735.508 822.49 736.461 822.27 737.415 821.826 738.369 822.247 739.323 822.042 740.277 822.095 741.231 822.236 742.185 822.285 743.138 822.246 744.092 822.329 745.046 822.131 746 822.045 746.954 822.37 747.908 822.394 748.862 822.582 749.815 822.483 750.769 822.338 751.723 822.227 752.677 822.053 753.631 822.077 754.585 822.082 755.539 822.204 756.492 822.429 757.446 822.255 758.4 822.138 759.354 822.256 760.308 822.195 761.261 822.383 762.215 822.585 763.169 822.398 764.123 822.206 765.077 822.515 766.031 822.607 766.985 822.11 767.938 822.488 768.892 822.284 769.846 822.01 770.8 822.312 771.754 822.001 772.708 822.239 773.662 822.267 774.615 822.105 775.569 822.209 776.523 822.586 777.477 822.395 778.431 822.11 779.385 822.603 780.339 822.634 781.292 822.142 782.246 822.443 783.2 822.783 784.154 822.435 785.108 822.266 786.062 822.521 787.015 822.584 787.969 822.334 788.923 822.443 789.877 822.273 790.831 822.16 791.785 822.493 792.739 822.427 793.692 821.825 794.646 822.204 795.6 822.252 796.554 822.083 797.508 822.273 798.461 822.102 799.415 821.773 800.369 822.377 801.323 822.544 802.277 822.091 803.231 822.444 804.185 822.444 805.138 822.345 806.092 822.21 807.046 821.901 808 822.101 808.954 822.208 809.908 822.445 810.862 822.172 811.815 822.151 812.769 822.52 813.723 822.129 814.677 822.099 815.631 822.363 816.585 822.404 817.539 822.487 818.492 822.447 819.446 822.522 820.4 822.063 821.354 822.303 822.308 822.354 823.261 822.122 824.215 822.377 825.169 822.524 826.123 822.205 827.077 822.261 828.031 822.034 828.985 822.181 829.938 822.123 830.892 822.271 831.846 821.846 832.8 822.169 833.754 822.317 834.708 821.929 835.661 822.202 836.615 822.476 837.569 822.607 838.523 822.532 839.477 822.573 840.431 822.214 841.385 822.297 842.338 822.413 843.292 822.398 844.246 822.084 845.2 822.146 846.154 822.288 847.108 822.249 848.062 821.816 849.015 821.879 849.969 821.548 850.923 821.98 851.877 821.78 852.831 672.768 853.785 386.579 854.739 381.068 855.692 256.58 856.646 251.867 857.6 223.577 858.554 197.979 859.508 203.527 860.461 180.296 861.415 190.512 862.369 178.451 863.323 183.227 864.277 180.366 865.231 179.459 866.185 180.728 867.138 178.289 868.092 179.757 869.046 179.34 870 179.225 870.954 178.454 871.908 179.404 872.862 178.628 873.815 178.681 874.769 179.067 875.723 178.738 876.677 179.009 877.631 179.12 878.585 179.089 879.539 179.258 880.492 178.421 881.446 178.735 882.4 179.24 883.354 179.139 884.308 179.116 885.261 179.372 886.215 178.995 887.169 178.595 888.123 179.346 889.077 178.894 890.031 179.242 890.985 179.474 891.938 179.046 892.892 179.389 893.846 178.991 894.8 178.695 895.754 178.733 896.708 179.288 897.662 179.183 898.615 179.501 899.569 178.932 900.523 178.684 901.477 178.705 902.431 178.952 903.385 179.581 904.338 179.051 905.292 179.268 906.246 179.061 907.2 178.252 908.154 179.333 909.108 178.704 910.062 179.924 911.015 178.904 911.969 179.207 912.923 179.649 913.877 178.816 914.831 178.453 915.785 178.923 916.739 179.685 917.692 178.732 918.646 179.442 919.6 179.139 920.554 179.137 921.508 196.771 922.461 354.305 923.415 496.647 924.369 589.272 925.323 661.147 926.277 702.579 927.231 735.711 928.185 756.139 929.138 773.313 930.092 783.886 931.046 791.836 932 798.735 932.954 802.968 933.908 807.292 934.862 809.325 935.815 811.6 936.769 813.276 937.723 814.614 938.677 816.14 939.631 816.725 940.585 817.667 941.539 818.173 942.492 819.005 943.446 819.541 944.4 819.478 945.354 819.809 946.308 820.027 947.261 820.22 948.215 820.324 949.169 820.863 950.123 820.877 951.077 820.597 952.031 821.045 952.985 821.14 953.938 821.166 954.892 821.348 955.846 821.485 956.8 821.113 957.754 821.554 958.708 821.661 959.662 821.524 960.615 821.739 961.569 821.696 962.523 821.563 963.477 821.807 964.431 821.891 965.385 821.703 966.339 821.969 967.292 821.869 968.246 821.696 969.2 821.807 970.154 821.782 971.108 821.889 972.062 822.056 973.015 822.008 973.969 821.902 974.923 821.932 975.877 822.099 976.831 822.073 977.785 821.993 978.738 822.349 979.692 822.135 980.646 821.866 981.6 821.997 982.554 821.948 983.508 822.221 984.461 822.334 985.415 822.485 986.369 822.555 987.323 822.419 988.277 822.487 989.231 822.235 990.185 822.39 991.138 822.253 992.092 821.867 993.046 822.077 994 821.855 994.954 821.855 995.908 822.083 996.862 822.153 997.815 821.99 998.769 822.111 999.723 822.148 1000.68 822.051 1001.63 822.239 1002.58 822.295 1003.54 821.984 1004.49 822.186 1005.45 822.153 1006.4 821.98 1007.35 821.802 1008.31 822.193 1009.26 822.079 1010.22 822.206 1011.17 822.39 1012.12 822.29 1013.08 822.102 1014.03 822.204 1014.98 821.66 1015.94 821.852 1016.89 822.374 1017.85 822.037 1018.8 822.025 1019.75 822.226 1020.71 821.969 1021.66 821.726 1022.62 821.821 1023.57 822.291 1024.52 821.944 1025.48 822.12 1026.43 822.004 1027.38 821.935 1028.34 821.897 1029.29 822.502 1030.25 822.31 1031.2 822.165 1032.15 822.234 1033.11 822.477 1034.06 822.276 1035.02 822.157 1035.97 822.443 1036.92 822.016 1037.88 822.474 1038.83 821.917 1039.78 821.98 1040.74 822.574 1041.69 822.31 1042.65 822.39 1043.6 822.225 1044.55 822.367 1045.51 822.109 1046.46 822.095 1047.42 822.533 1048.37 822.299 1049.32 822.377 1050.28 822.253 1051.23 822.27 1052.18 821.918 1053.14 822.507 1054.09 822.077 1055.05 821.99 1056 822.54 1056.95 822.483 1057.91 822.104 1058.86 822.197 1059.82 822.326 1060.77 821.89 1061.72 821.859 1062.68 822.278 1063.63 822.008 1064.58 822.258 1065.54 822.19 1066.49 822.062 1067.45 822.505 1068.4 822.197 1069.35 821.87 1070.31 822.175 1071.26 822.478 1072.22 821.887 1073.17 822.139 1074.12 822.246 1075.08 822.155 1076.03 821.947 1076.98 822.238 1077.94 822.182 1078.89 822.087 1079.85 822.048 1080.8 822.222 1081.75 822.184 1082.71 822.587 1083.66 822.176 1084.62 822.27 1085.57 822.592 1086.52 822.692 1087.48 822.307 1088.43 822.398 1089.38 822.471 1090.34 822.535 1091.29 822.25 1092.25 822.243 1093.2 822.252 1094.15 822.348 1095.11 822.611 1096.06 822.465 1097.02 822.365 1097.97 822.324 1098.92 822.189 1099.88 822.169 1100.83 822.306 1101.78 822.122 1102.74 822.289 1103.69 822.465 1104.65 822.078 1105.6 822.083 1106.55 822.432 1107.51 822.393 1108.46 822.156 1109.42 822.415 1110.37 821.872 1111.32 822.01 1112.28 822.578 1113.23 822.114 1114.18 822.097 1115.14 822.411 1116.09 822.272 1117.05 822.359 1118 822.097 1118.95 822.453 1119.91 822.296 1120.86 822.016 1121.82 822.175 1122.77 822.201 1123.72 821.973 1124.68 822.19 1125.63 822.161 1126.58 822.026 1127.54 822.437 1128.49 822.535 1129.45 821.8 1130.4 822.148 1131.35 822.269 1132.31 822.453 1133.26 822.404 1134.22 822.445 1135.17 822.158 1136.12 822.27 1137.08 822.429 1138.03 822.234 1138.98 822.151 1139.94 822.164 1140.89 822.05 1141.85 822.382 1142.8 822.313 1143.75 821.954 1144.71 821.792 1145.66 821.863 1146.62 821.793 1147.57 821.913 1148.52 821.847 1149.48 682.38 1150.43 406.278 1151.38 384.086 1152.34 278.367 1153.29 244.519 1154.25 225.605 1155.2 193.977 1156.15 204.064 1157.11 181.379 1158.06 189.173 1159.02 180.161 1159.97 182.065 1160.92 179.868 1161.88 179.106 1162.83 180.281 1163.78 178.216 1164.74 180.674 1165.69 177.774 1166.65 179.753 1167.6 178.547 1168.55 178.841 1169.51 178.775 1170.46 178.958 1171.42 178.909 1172.37 179.341 1173.32 178.588 1174.28 179.359 1175.23 177.917 1176.18 179.527 1177.14 178.862 1178.09 178.583 1179.05 179.395 1180 178.356 1180.95 179.208 1181.91 179.076 1182.86 178.422 1183.82 179.418 1184.77 178.505 1185.72 180.117 1186.68 179.144 1187.63 177.847 1188.58 179.729 1189.54 177.871 1190.49 179.749 1191.45 178.448 1192.4 179.476 1193.35 179.104 1194.31 179.125 1195.26 180.249 1196.22 178.284 1197.17 178.786 1198.12 179 1199.08 178.917 1200.03 179.123 1200.98 179.34 1201.94 178.738 1202.89 178.288 1203.85 179.687 1204.8 178.802 1205.75 179.04 1206.71 179.501 1207.66 178.551 1208.62 178.482 1209.57 179.534 1210.52 179.165 1211.48 178.572 1212.43 179.617 1213.38 179.457 1214.34 177.857 1215.29 179.052 1216.25 178.558 1217.2 179.233 1218.15 187.367 1219.11 326.014 1220.06 477.987 1221.02 589.575 1221.97 652.389 1222.92 702.704 1223.88 732.241 1224.83 753.93 1225.78 771.831 1226.74 782.215 1227.69 791.275 1228.65 797.26 1229.6 802.957 1230.55 806.228 1231.51 809.441 1232.46 811.472 1233.42 813.325 1234.37 814.809 1235.32 815.697 1236.28 816.713 1237.23 818.031 1238.18 818.38 1239.14 818.697 1240.09 819.367 1241.05 819.64 1242 819.392 1242.95 820.176 1243.91 820.409 1244.86 820.427 1245.82 820.645 1246.77 820.537 1247.72 820.858 1248.68 821.156 1249.63 821.381 1250.58 820.992 1251.54 821.56 1252.49 821.474 1253.45 821.585 1254.4 821.629 1255.35 821.816 1256.31 821.478 1257.26 821.644 1258.22 821.69 1259.17 821.647 1260.12 821.735 1261.08 821.527 1262.03 821.298 1262.98 821.71 1263.94 821.953 1264.89 821.94 1265.85 821.967 1266.8 821.868 1267.75 822.095 1268.71 821.773 1269.66 822.308 1270.62 822.159 1271.57 821.814 1272.52 822.12 1273.48 822.268 1274.43 821.681 1275.38 821.847 1276.34 822.093 1277.29 822.076 1278.25 822.206 1279.2 822.321 1280.15 822.351 1281.11 821.985 1282.06 821.868 1283.02 821.965 1283.97 822.147 1284.92 822.403 1285.88 822.082 1286.83 822.227 1287.78 822.332 1288.74 822.243 1289.69 821.859 1290.65 822.349 1291.6 822.357 1292.55 822.153 1293.51 822.19 1294.46 822.127 1295.42 822.018 1296.37 821.874 1297.32 821.852 1298.28 821.828 1299.23 821.958 1300.18 822.363 1301.14 821.861 1302.09 821.882 1303.05 822.123 1304 821.888 1304.95 822.454 1305.91 822.527 1306.86 822.235 1307.82 822.041 1308.77 822.072 1309.72 822.059 1310.68 821.89 1311.63 822.221 1312.58 822.139 1313.54 822.157 1314.49 822.084 1315.45 821.979 1316.4 822.345 1317.35 822.294 1318.31 822.093 1319.26 821.819 1320.22 822.173 1321.17 821.825 1322.12 821.791 1323.08 822.336 1324.03 822.596 1324.98 822.276 1325.94 822.17 1326.89 822.1 1327.85 822.062 1328.8 821.972 1329.75 822.301 1330.71 821.994 1331.66 822.272 1332.62 822.176 1333.57 822.336 1334.52 822.258 1335.48 822.376 1336.43 822.058 1337.38 822.279 1338.34 822.781 1339.29 822.574 1340.25 822.544 1341.2 822.287 1342.15 822.204 1343.11 822.094 1344.06 822.194 1345.02 822.349 1345.97 822.062 1346.92 822.221 1347.88 822.058 1348.83 821.763 1349.78 822.183 1350.74 822.097 1351.69 822.028 1352.65 822.133 1353.6 822.302 1354.55 822.206 1355.51 822.123 1356.46 822.264 1357.42 822.336 1358.37 822.262 1359.32 822.603 1360.28 822.072 1361.23 822.154 1362.18 821.866 1363.14 821.979 1364.09 822.293 1365.05 822.577 1366 822.151 1366.95 822.101 1367.91 822.394 1368.86 822.823 1369.82 822.364 1370.77 822.54 1371.72 822.75 1372.68 822.468 1373.63 822.467 1374.58 822.167 1375.54 821.903 1376.49 822.46 1377.45 822.63 1378.4 822.256 1379.35 822.267 1380.31 822.49 1381.26 822.163 1382.22 822.005 1383.17 822.266 1384.12 822.02 1385.08 822.119 1386.03 822.845 1386.98 822.296 1387.94 821.871 1388.89 821.85 1389.85 821.918 1390.8 822.103 1391.75 822.733 1392.71 822.189 1393.66 822.023 1394.62 822.532 1395.57 822.116 1396.52 822.188 1397.48 822.418 1398.43 822.179 1399.38 822.217 1400.34 822.302 1401.29 822.474 1402.25 821.987 1403.2 822.367 1404.15 822.308 1405.11 822.133 1406.06 822.659 1407.02 822.282 1407.97 822.19 1408.92 822.13 1409.88 822.244 1410.83 822.05 1411.78 822.16 1412.74 822.476 1413.69 822.113 1414.65 821.881 1415.6 822.076 1416.55 822.342 1417.51 822.243 1418.46 822.433 1419.42 822.417 1420.37 822.348 1421.32 822.818 1422.28 822.655 1423.23 822.3 1424.18 822.322 1425.14 822.026 1426.09 822.011 1427.05 822.177 1428 822.437 1428.95 822.002 1429.91 822.409 1430.86 822.451 1431.82 821.917 1432.77 822.365 1433.72 822.55 1434.68 822.254 1435.63 822.365 1436.58 822.296 1437.54 822.267 1438.49 822.126 1439.45 822.289 1440.4 822.287 1441.35 821.701 1442.31 821.816 1443.26 821.842 1444.22 821.696 1445.17 821.773 1446.12 724.229 1447.08 437.388 1448.03 385.607 1448.98 295.523 1449.94 245.517 1450.89 236.338 1451.85 192.169 1452.8 206.821 1453.75 182.199 1454.71 189.8 1455.66 181.505 1456.62 181.472 1457.57 182.276 1458.52 177.659 1459.48 181.589 1460.43 178.494 1461.38 179.173 1462.34 179.587 1463.29 179.219 1464.25 178.588 1465.2 179.672 1466.15 179.258 1467.11 179.428 1468.06 177.428 1469.02 179.802 1469.97 177.88 1470.92 180.294 1471.88 178.325 1472.83 179.5 1473.78 179.807 1474.74 179.045 1475.69 178.648 1476.65 178.518 1477.6 179.019 1478.55 178.635 1479.51 178.983 1480.46 178.979 1481.42 178.819 1482.37 178.846 1483.32 179.131 1484.28 178.911 1485.23 179.619 1486.18 178.528 1487.14 179.287 1488.09 178.197 1489.05 180.028 1490 178.957 1490.95 177.673 1491.91 180.018 1492.86 178.007 1493.82 180.247 1494.77 177.571 1495.72 178.977 1496.68 179.121 1497.63 178.831 1498.58 179.42 1499.54 179.255 1500.49 179.092 1501.45 178.992 1502.4 179.445 1503.35 178.673 1504.31 178.891 1505.26 179.023 1506.22 179.107 1507.17 178.992 1508.12 178.822 1509.08 179.074 1510.03 180.256 1510.98 178.607 1511.94 179.015 1512.89 178.315 1513.85 180.037 1514.8 187.428 1515.75 297.609 1516.71 477.392 1517.66 576.251 1518.62 643.401 1519.57 696.725 1520.52 727.792 1521.48 753.321 1522.43 769.185 1523.38 782.188 1524.34 790.474 1525.29 797.002 1526.25 802.123 1527.2 805.846 1528.15 809.323 1529.11 811.53 1530.06 813.107 1531.02 814.626 1531.97 815.939 1532.92 816.748 1533.88 817.437 1534.83 818.136 1535.78 818.695 1536.74 819.161 1537.69 819.725 1538.65 819.633 1539.6 819.942 1540.55 820.424 1541.51 820.259 1542.46 820.353 1543.42 820.765 1544.37 820.941 1545.32 820.969 1546.28 821.168 1547.23 821.054 1548.18 821.453 1549.14 821.266 1550.09 821.519 1551.05 821.237 1552 821.51 1552.95 821.589 1553.91 821.66 1554.86 821.752 1555.82 821.547 1556.77 821.912 1557.72 821.919 1558.68 821.894 1559.63 821.415 1560.58 821.447 1561.54 821.488 1562.49 821.119 1563.45 821.807 1564.4 822.203 1565.35 821.566 1566.31 821.327 1567.26 821.97 1568.22 821.825 1569.17 821.709 1570.12 822.101 1571.08 822.186 1572.03 821.956 1572.98 822.281 1573.94 822.191 1574.89 821.57 1575.85 822.217 1576.8 822.261 1577.75 822.115 1578.71 822.106 1579.66 822.326 1580.62 822.204 1581.57 822.255 1582.52 822.029 1583.48 822.225 1584.43 822.478 1585.38 822.703 1586.34 821.937 1587.29 821.965 1588.25 822.031 1589.2 821.941 1590.15 822.029 1591.11 822.164 1592.06 822.265 1593.02 822.431 1593.97 822.603 1594.92 821.922 1595.88 821.75 1596.83 822.208 1597.78 822.172 1598.74 821.89 1599.69 822.232 1600.65 822.611 1601.6 822.23 1602.55 822.135 1603.51 822.317 1604.46 822.374 1605.42 822.422 1606.37 822.561 1607.32 822.467 1608.28 822.279 1609.23 822.325 1610.18 822.222 1611.14 822.474 1612.09 822.188 1613.05 821.871 1614 822.222 1614.95 822.335 1615.91 821.841 1616.86 822.375 1617.82 822.342 1618.77 822.483 1619.72 822.354 1620.68 821.995 1621.63 822.147 1622.58 822.1 1623.54 822.433 1624.49 822.234 1625.45 821.944 1626.4 822.258 1627.35 822.468 1628.31 822.315 1629.26 822.018 1630.22 822.061 1631.17 822.031 1632.12 822.476 1633.08 822.403 1634.03 822.101 1634.98 822.077 1635.94 822.099 1636.89 822.249 1637.85 822.214 1638.8 822.403 1639.75 822.23 1640.71 822.418 1641.66 822.387 1642.62 821.969 1643.57 822.209 1644.52 822.534 1645.48 822.416 1646.43 822.379 1647.38 822.61 1648.34 822.104 1649.29 822.011 1650.25 822.274 1651.2 822.396 1652.15 822.193 1653.11 822.113 1654.06 821.971 1655.02 822.072 1655.97 822.076 1656.92 822.447 1657.88 822.605 1658.83 822.473 1659.78 822.146 1660.74 822.028 1661.69 822.571 1662.65 822.238 1663.6 822.414 1664.55 822.464 1665.51 822.55 1666.46 822.483 1667.42 822.715 1668.37 822.09 1669.32 822.013 1670.28 822.256 1671.23 822.321 1672.18 822.083 1673.14 821.841 1674.09 821.953 1675.05 821.989 1676 822.195 1676.95 822.617 1677.91 822.686 1678.86 822.474 1679.82 822.6 1680.77 822.183 1681.72 822.005 1682.68 822.304 1683.63 822.358 1684.58 822.475 1685.54 822.58 1686.49 822.641 1687.45 822.297 1688.4 822.187 1689.35 822.17 1690.31 822.293 1691.26 822.542 1692.22 822.108 1693.17 821.745 1694.12 821.928 1695.08 822.225 1696.03 822.181 1696.98 822.038 1697.94 822.095 1698.89 822.178 1699.85 822.364 1700.8 822.367 1701.75 822.237 1702.71 822.417 1703.66 822.861 1704.62 822.609 1705.57 822.22 1706.52 822.157 1707.48 822.442 1708.43 821.993 1709.38 821.858 1710.34 822.246 1711.29 822.327 1712.25 822.271 1713.2 822.386 1714.15 822.406 1715.11 822.265 1716.06 822.372 1717.02 822.187 1717.97 822.346 1718.92 822.641 1719.88 822.191 1720.83 822.369 1721.78 822.444 1722.74 822.112 1723.69 821.945 1724.65 821.986 1725.6 822.407 1726.55 822.443 1727.51 822.693 1728.46 822.668 1729.42 822.51 1730.37 822.578 1731.32 822.567 1732.28 822.3 1733.23 822.253 1734.18 822.477 1735.14 822.084 1736.09 822.007 1737.05 822.263" fill="none" fill-rule="evenodd"/></g><g stroke="#D95319" stroke-width="6.6667" stroke-linecap="butt" stroke-linejoin="bevel" stroke-miterlimit="1" stroke-dasharray="24 24" fill="#D95319"><path d="M258.585 179 259.539 179 260.492 179 261.446 179 262.4 179 263.354 179 264.308 179 265.262 179 266.215 179 267.169 179 268.123 179 269.077 179 270.031 179 270.985 179 271.939 179 272.892 179 273.846 179 274.8 179 275.754 179 276.708 179 277.661 179 278.615 179 279.569 179 280.523 179 281.477 179 282.431 179 283.385 179 284.339 179 285.292 179 286.246 179 287.2 179 288.154 179 289.108 179 290.062 179 291.015 179 291.969 179 292.923 179 293.877 179 294.831 179 295.785 179 296.738 179 297.692 179 298.646 179 299.6 179 300.554 179 301.508 179 302.461 179 303.415 179 304.369 179 305.323 179 306.277 179 307.231 179 308.185 179 309.138 179 310.092 179 311.046 179 312 179 312.954 179 313.908 179 314.862 179 315.815 179 316.769 179 317.723 179 318.677 179 319.631 179 320.585 179 321.539 179 322.492 179 323.446 179 324.4 179 325.354 179 326.308 179 327.262 179 328.215 833 329.169 833 330.123 833 331.077 833 332.031 833 332.985 833 333.939 833 334.892 833 335.846 833 336.8 833 337.754 833 338.708 833 339.661 833 340.615 833 341.569 833 342.523 833 343.477 833 344.431 833 345.385 833 346.339 833 347.292 833 348.246 833 349.2 833 350.154 833 351.108 833 352.061 833 353.015 833 353.969 833 354.923 833 355.877 833 356.831 833 357.785 833 358.738 833 359.692 833 360.646 833 361.6 833 362.554 833 363.508 833 364.461 833 365.415 833 366.369 833 367.323 833 368.277 833 369.231 833 370.185 833 371.138 833 372.092 833 373.046 833 374 833 374.954 833 375.908 833 376.862 833 377.815 833 378.769 833 379.723 833 380.677 833 381.631 833 382.585 833 383.539 833 384.492 833 385.446 833 386.4 833 387.354 833 388.308 833 389.262 833 390.215 833 391.169 833 392.123 833 393.077 833 394.031 833 394.985 833 395.938 833 396.892 833 397.846 833 398.8 833 399.754 833 400.708 833 401.661 833 402.615 833 403.569 833 404.523 833 405.477 833 406.431 833 407.385 833 408.339 833 409.292 833 410.246 833 411.2 833 412.154 833 413.108 833 414.061 833 415.015 833 415.969 833 416.923 833 417.877 833 418.831 833 419.785 833 420.738 833 421.692 833 422.646 833 423.6 833 424.554 833 425.508 833 426.461 833 427.415 833 428.369 833 429.323 833 430.277 833 431.231 833 432.185 833 433.138 833 434.092 833 435.046 833 436 833 436.954 833 437.908 833 438.862 833 439.815 833 440.769 833 441.723 833 442.677 833 443.631 833 444.585 833 445.539 833 446.492 833 447.446 833 448.4 833 449.354 833 450.308 833 451.262 833 452.215 833 453.169 833 454.123 833 455.077 833 456.031 833 456.985 833 457.939 833 458.892 833 459.846 833 460.8 833 461.754 833 462.708 833 463.661 833 464.615 833 465.569 833 466.523 833 467.477 833 468.431 833 469.385 833 470.339 833 471.292 833 472.246 833 473.2 833 474.154 833 475.108 833 476.061 833 477.015 833 477.969 833 478.923 833 479.877 833 480.831 833 481.785 833 482.738 833 483.692 833 484.646 833 485.6 833 486.554 833 487.508 833 488.461 833 489.415 833 490.369 833 491.323 833 492.277 833 493.231 833 494.185 833 495.138 833 496.092 833 497.046 833 498 833 498.954 833 499.908 833 500.862 833 501.815 833 502.769 833 503.723 833 504.677 833 505.631 833 506.585 833 507.539 833 508.492 833 509.446 833 510.4 833 511.354 833 512.308 833 513.261 833 514.215 833 515.169 833 516.123 833 517.077 833 518.031 833 518.985 833 519.938 833 520.892 833 521.846 833 522.8 833 523.754 833 524.708 833 525.662 833 526.615 833 527.569 833 528.523 833 529.477 833 530.431 833 531.385 833 532.338 833 533.292 833 534.246 833 535.2 833 536.154 833 537.108 833 538.062 833 539.015 833 539.969 833 540.923 833 541.877 833 542.831 833 543.785 833 544.739 833 545.692 833 546.646 833 547.6 833 548.554 833 549.508 833 550.461 179 551.415 179 552.369 179 553.323 179 554.277 179 555.231 179 556.185 179 557.138 179 558.092 179 559.046 179 560 179 560.954 179 561.908 179 562.862 179 563.815 179 564.769 179 565.723 179 566.677 179 567.631 179 568.585 179 569.539 179 570.492 179 571.446 179 572.4 179 573.354 179 574.308 179 575.261 179 576.215 179 577.169 179 578.123 179 579.077 179 580.031 179 580.985 179 581.938 179 582.892 179 583.846 179 584.8 179 585.754 179 586.708 179 587.662 179 588.615 179 589.569 179 590.523 179 591.477 179 592.431 179 593.385 179 594.339 179 595.292 179 596.246 179 597.2 179 598.154 179 599.108 179 600.062 179 601.015 179 601.969 179 602.923 179 603.877 179 604.831 179 605.785 179 606.739 179 607.692 179 608.646 179 609.6 179 610.554 179 611.508 179 612.461 179 613.415 179 614.369 179 615.323 179 616.277 179 617.231 179 618.185 179 619.138 179 620.092 179 621.046 179 622 179 622.954 179 623.908 179 624.862 833 625.815 833 626.769 833 627.723 833 628.677 833 629.631 833 630.585 833 631.539 833 632.492 833 633.446 833 634.4 833 635.354 833 636.308 833 637.261 833 638.215 833 639.169 833 640.123 833 641.077 833 642.031 833 642.985 833 643.938 833 644.892 833 645.846 833 646.8 833 647.754 833 648.708 833 649.661 833 650.615 833 651.569 833 652.523 833 653.477 833 654.431 833 655.385 833 656.338 833 657.292 833 658.246 833 659.2 833 660.154 833 661.108 833 662.062 833 663.015 833 663.969 833 664.923 833 665.877 833 666.831 833 667.785 833 668.739 833 669.692 833 670.646 833 671.6 833 672.554 833 673.508 833 674.461 833 675.415 833 676.369 833 677.323 833 678.277 833 679.231 833 680.185 833 681.138 833 682.092 833 683.046 833 684 833 684.954 833 685.908 833 686.862 833 687.815 833 688.769 833 689.723 833 690.677 833 691.631 833 692.585 833 693.539 833 694.492 833 695.446 833 696.4 833 697.354 833 698.308 833 699.261 833 700.215 833 701.169 833 702.123 833 703.077 833 704.031 833 704.985 833 705.938 833 706.892 833 707.846 833 708.8 833 709.754 833 710.708 833 711.662 833 712.615 833 713.569 833 714.523 833 715.477 833 716.431 833 717.385 833 718.338 833 719.292 833 720.246 833 721.2 833 722.154 833 723.108 833 724.062 833 725.015 833 725.969 833 726.923 833 727.877 833 728.831 833 729.785 833 730.739 833 731.692 833 732.646 833 733.6 833 734.554 833 735.508 833 736.461 833 737.415 833 738.369 833 739.323 833 740.277 833 741.231 833 742.185 833 743.138 833 744.092 833 745.046 833 746 833 746.954 833 747.908 833 748.862 833 749.815 833 750.769 833 751.723 833 752.677 833 753.631 833 754.585 833 755.539 833 756.492 833 757.446 833 758.4 833 759.354 833 760.308 833 761.261 833 762.215 833 763.169 833 764.123 833 765.077 833 766.031 833 766.985 833 767.938 833 768.892 833 769.846 833 770.8 833 771.754 833 772.708 833 773.662 833 774.615 833 775.569 833 776.523 833 777.477 833 778.431 833 779.385 833 780.339 833 781.292 833 782.246 833 783.2 833 784.154 833 785.108 833 786.062 833 787.015 833 787.969 833 788.923 833 789.877 833 790.831 833 791.785 833 792.739 833 793.692 833 794.646 833 795.6 833 796.554 833 797.508 833 798.461 833 799.415 833 800.369 833 801.323 833 802.277 833 803.231 833 804.185 833 805.138 833 806.092 833 807.046 833 808 833 808.954 833 809.908 833 810.862 833 811.815 833 812.769 833 813.723 833 814.677 833 815.631 833 816.585 833 817.539 833 818.492 833 819.446 833 820.4 833 821.354 833 822.308 833 823.261 833 824.215 833 825.169 833 826.123 833 827.077 833 828.031 833 828.985 833 829.938 833 830.892 833 831.846 833 832.8 833 833.754 833 834.708 833 835.661 833 836.615 833 837.569 833 838.523 833 839.477 833 840.431 833 841.385 833 842.338 833 843.292 833 844.246 833 845.2 833 846.154 833 847.108 179 848.062 179 849.015 179 849.969 179 850.923 179 851.877 179 852.831 179 853.785 179 854.739 179 855.692 179 856.646 179 857.6 179 858.554 179 859.508 179 860.461 179 861.415 179 862.369 179 863.323 179 864.277 179 865.231 179 866.185 179 867.138 179 868.092 179 869.046 179 870 179 870.954 179 871.908 179 872.862 179 873.815 179 874.769 179 875.723 179 876.677 179 877.631 179 878.585 179 879.539 179 880.492 179 881.446 179 882.4 179 883.354 179 884.308 179 885.261 179 886.215 179 887.169 179 888.123 179 889.077 179 890.031 179 890.985 179 891.938 179 892.892 179 893.846 179 894.8 179 895.754 179 896.708 179 897.662 179 898.615 179 899.569 179 900.523 179 901.477 179 902.431 179 903.385 179 904.338 179 905.292 179 906.246 179 907.2 179 908.154 179 909.108 179 910.062 179 911.015 179 911.969 179 912.923 179 913.877 179 914.831 179 915.785 179 916.739 179 917.692 179 918.646 179 919.6 179 920.554 179 921.508 833 922.461 833 923.415 833 924.369 833 925.323 833 926.277 833 927.231 833 928.185 833 929.138 833 930.092 833 931.046 833 932 833 932.954 833 933.908 833 934.862 833 935.815 833 936.769 833 937.723 833 938.677 833 939.631 833 940.585 833 941.539 833 942.492 833 943.446 833 944.4 833 945.354 833 946.308 833 947.261 833 948.215 833 949.169 833 950.123 833 951.077 833 952.031 833 952.985 833 953.938 833 954.892 833 955.846 833 956.8 833 957.754 833 958.708 833 959.662 833 960.615 833 961.569 833 962.523 833 963.477 833 964.431 833 965.385 833 966.339 833 967.292 833 968.246 833 969.2 833 970.154 833 971.108 833 972.062 833 973.015 833 973.969 833 974.923 833 975.877 833 976.831 833 977.785 833 978.738 833 979.692 833 980.646 833 981.6 833 982.554 833 983.508 833 984.461 833 985.415 833 986.369 833 987.323 833 988.277 833 989.231 833 990.185 833 991.138 833 992.092 833 993.046 833 994 833 994.954 833 995.908 833 996.862 833 997.815 833 998.769 833 999.723 833 1000.68 833 1001.63 833 1002.58 833 1003.54 833 1004.49 833 1005.45 833 1006.4 833 1007.35 833 1008.31 833 1009.26 833 1010.22 833 1011.17 833 1012.12 833 1013.08 833 1014.03 833 1014.98 833 1015.94 833 1016.89 833 1017.85 833 1018.8 833 1019.75 833 1020.71 833 1021.66 833 1022.62 833 1023.57 833 1024.52 833 1025.48 833 1026.43 833 1027.38 833 1028.34 833 1029.29 833 1030.25 833 1031.2 833 1032.15 833 1033.11 833 1034.06 833 1035.02 833 1035.97 833 1036.92 833 1037.88 833 1038.83 833 1039.78 833 1040.74 833 1041.69 833 1042.65 833 1043.6 833 1044.55 833 1045.51 833 1046.46 833 1047.42 833 1048.37 833 1049.32 833 1050.28 833 1051.23 833 1052.18 833 1053.14 833 1054.09 833 1055.05 833 1056 833 1056.95 833 1057.91 833 1058.86 833 1059.82 833 1060.77 833 1061.72 833 1062.68 833 1063.63 833 1064.58 833 1065.54 833 1066.49 833 1067.45 833 1068.4 833 1069.35 833 1070.31 833 1071.26 833 1072.22 833 1073.17 833 1074.12 833 1075.08 833 1076.03 833 1076.98 833 1077.94 833 1078.89 833 1079.85 833 1080.8 833 1081.75 833 1082.71 833 1083.66 833 1084.62 833 1085.57 833 1086.52 833 1087.48 833 1088.43 833 1089.38 833 1090.34 833 1091.29 833 1092.25 833 1093.2 833 1094.15 833 1095.11 833 1096.06 833 1097.02 833 1097.97 833 1098.92 833 1099.88 833 1100.83 833 1101.78 833 1102.74 833 1103.69 833 1104.65 833 1105.6 833 1106.55 833 1107.51 833 1108.46 833 1109.42 833 1110.37 833 1111.32 833 1112.28 833 1113.23 833 1114.18 833 1115.14 833 1116.09 833 1117.05 833 1118 833 1118.95 833 1119.91 833 1120.86 833 1121.82 833 1122.77 833 1123.72 833 1124.68 833 1125.63 833 1126.58 833 1127.54 833 1128.49 833 1129.45 833 1130.4 833 1131.35 833 1132.31 833 1133.26 833 1134.22 833 1135.17 833 1136.12 833 1137.08 833 1138.03 833 1138.98 833 1139.94 833 1140.89 833 1141.85 833 1142.8 833 1143.75 179 1144.71 179 1145.66 179 1146.62 179 1147.57 179 1148.52 179 1149.48 179 1150.43 179 1151.38 179 1152.34 179 1153.29 179 1154.25 179 1155.2 179 1156.15 179 1157.11 179 1158.06 179 1159.02 179 1159.97 179 1160.92 179 1161.88 179 1162.83 179 1163.78 179 1164.74 179 1165.69 179 1166.65 179 1167.6 179 1168.55 179 1169.51 179 1170.46 179 1171.42 179 1172.37 179 1173.32 179 1174.28 179 1175.23 179 1176.18 179 1177.14 179 1178.09 179 1179.05 179 1180 179 1180.95 179 1181.91 179 1182.86 179 1183.82 179 1184.77 179 1185.72 179 1186.68 179 1187.63 179 1188.58 179 1189.54 179 1190.49 179 1191.45 179 1192.4 179 1193.35 179 1194.31 179 1195.26 179 1196.22 179 1197.17 179 1198.12 179 1199.08 179 1200.03 179 1200.98 179 1201.94 179 1202.89 179 1203.85 179 1204.8 179 1205.75 179 1206.71 179 1207.66 179 1208.62 179 1209.57 179 1210.52 179 1211.48 179 1212.43 179 1213.38 179 1214.34 179 1215.29 179 1216.25 179 1217.2 179 1218.15 833 1219.11 833 1220.06 833 1221.02 833 1221.97 833 1222.92 833 1223.88 833 1224.83 833 1225.78 833 1226.74 833 1227.69 833 1228.65 833 1229.6 833 1230.55 833 1231.51 833 1232.46 833 1233.42 833 1234.37 833 1235.32 833 1236.28 833 1237.23 833 1238.18 833 1239.14 833 1240.09 833 1241.05 833 1242 833 1242.95 833 1243.91 833 1244.86 833 1245.82 833 1246.77 833 1247.72 833 1248.68 833 1249.63 833 1250.58 833 1251.54 833 1252.49 833 1253.45 833 1254.4 833 1255.35 833 1256.31 833 1257.26 833 1258.22 833 1259.17 833 1260.12 833 1261.08 833 1262.03 833 1262.98 833 1263.94 833 1264.89 833 1265.85 833 1266.8 833 1267.75 833 1268.71 833 1269.66 833 1270.62 833 1271.57 833 1272.52 833 1273.48 833 1274.43 833 1275.38 833 1276.34 833 1277.29 833 1278.25 833 1279.2 833 1280.15 833 1281.11 833 1282.06 833 1283.02 833 1283.97 833 1284.92 833 1285.88 833 1286.83 833 1287.78 833 1288.74 833 1289.69 833 1290.65 833 1291.6 833 1292.55 833 1293.51 833 1294.46 833 1295.42 833 1296.37 833 1297.32 833 1298.28 833 1299.23 833 1300.18 833 1301.14 833 1302.09 833 1303.05 833 1304 833 1304.95 833 1305.91 833 1306.86 833 1307.82 833 1308.77 833 1309.72 833 1310.68 833 1311.63 833 1312.58 833 1313.54 833 1314.49 833 1315.45 833 1316.4 833 1317.35 833 1318.31 833 1319.26 833 1320.22 833 1321.17 833 1322.12 833 1323.08 833 1324.03 833 1324.98 833 1325.94 833 1326.89 833 1327.85 833 1328.8 833 1329.75 833 1330.71 833 1331.66 833 1332.62 833 1333.57 833 1334.52 833 1335.48 833 1336.43 833 1337.38 833 1338.34 833 1339.29 833 1340.25 833 1341.2 833 1342.15 833 1343.11 833 1344.06 833 1345.02 833 1345.97 833 1346.92 833 1347.88 833 1348.83 833 1349.78 833 1350.74 833 1351.69 833 1352.65 833 1353.6 833 1354.55 833 1355.51 833 1356.46 833 1357.42 833 1358.37 833 1359.32 833 1360.28 833 1361.23 833 1362.18 833 1363.14 833 1364.09 833 1365.05 833 1366 833 1366.95 833 1367.91 833 1368.86 833 1369.82 833 1370.77 833 1371.72 833 1372.68 833 1373.63 833 1374.58 833 1375.54 833 1376.49 833 1377.45 833 1378.4 833 1379.35 833 1380.31 833 1381.26 833 1382.22 833 1383.17 833 1384.12 833 1385.08 833 1386.03 833 1386.98 833 1387.94 833 1388.89 833 1389.85 833 1390.8 833 1391.75 833 1392.71 833 1393.66 833 1394.62 833 1395.57 833 1396.52 833 1397.48 833 1398.43 833 1399.38 833 1400.34 833 1401.29 833 1402.25 833 1403.2 833 1404.15 833 1405.11 833 1406.06 833 1407.02 833 1407.97 833 1408.92 833 1409.88 833 1410.83 833 1411.78 833 1412.74 833 1413.69 833 1414.65 833 1415.6 833 1416.55 833 1417.51 833 1418.46 833 1419.42 833 1420.37 833 1421.32 833 1422.28 833 1423.23 833 1424.18 833 1425.14 833 1426.09 833 1427.05 833 1428 833 1428.95 833 1429.91 833 1430.86 833 1431.82 833 1432.77 833 1433.72 833 1434.68 833 1435.63 833 1436.58 833 1437.54 833 1438.49 833 1439.45 833 1440.4 179 1441.35 179 1442.31 179 1443.26 179 1444.22 179 1445.17 179 1446.12 179 1447.08 179 1448.03 179 1448.98 179 1449.94 179 1450.89 179 1451.85 179 1452.8 179 1453.75 179 1454.71 179 1455.66 179 1456.62 179 1457.57 179 1458.52 179 1459.48 179 1460.43 179 1461.38 179 1462.34 179 1463.29 179 1464.25 179 1465.2 179 1466.15 179 1467.11 179 1468.06 179 1469.02 179 1469.97 179 1470.92 179 1471.88 179 1472.83 179 1473.78 179 1474.74 179 1475.69 179 1476.65 179 1477.6 179 1478.55 179 1479.51 179 1480.46 179 1481.42 179 1482.37 179 1483.32 179 1484.28 179 1485.23 179 1486.18 179 1487.14 179 1488.09 179 1489.05 179 1490 179 1490.95 179 1491.91 179 1492.86 179 1493.82 179 1494.77 179 1495.72 179 1496.68 179 1497.63 179 1498.58 179 1499.54 179 1500.49 179 1501.45 179 1502.4 179 1503.35 179 1504.31 179 1505.26 179 1506.22 179 1507.17 179 1508.12 179 1509.08 179 1510.03 179 1510.98 179 1511.94 179 1512.89 179 1513.85 179 1514.8 833 1515.75 833 1516.71 833 1517.66 833 1518.62 833 1519.57 833 1520.52 833 1521.48 833 1522.43 833 1523.38 833 1524.34 833 1525.29 833 1526.25 833 1527.2 833 1528.15 833 1529.11 833 1530.06 833 1531.02 833 1531.97 833 1532.92 833 1533.88 833 1534.83 833 1535.78 833 1536.74 833 1537.69 833 1538.65 833 1539.6 833 1540.55 833 1541.51 833 1542.46 833 1543.42 833 1544.37 833 1545.32 833 1546.28 833 1547.23 833 1548.18 833 1549.14 833 1550.09 833 1551.05 833 1552 833 1552.95 833 1553.91 833 1554.86 833 1555.82 833 1556.77 833 1557.72 833 1558.68 833 1559.63 833 1560.58 833 1561.54 833 1562.49 833 1563.45 833 1564.4 833 1565.35 833 1566.31 833 1567.26 833 1568.22 833 1569.17 833 1570.12 833 1571.08 833 1572.03 833 1572.98 833 1573.94 833 1574.89 833 1575.85 833 1576.8 833 1577.75 833 1578.71 833 1579.66 833 1580.62 833 1581.57 833 1582.52 833 1583.48 833 1584.43 833 1585.38 833 1586.34 833 1587.29 833 1588.25 833 1589.2 833 1590.15 833 1591.11 833 1592.06 833 1593.02 833 1593.97 833 1594.92 833 1595.88 833 1596.83 833 1597.78 833 1598.74 833 1599.69 833 1600.65 833 1601.6 833 1602.55 833 1603.51 833 1604.46 833 1605.42 833 1606.37 833 1607.32 833 1608.28 833 1609.23 833 1610.18 833 1611.14 833 1612.09 833 1613.05 833 1614 833 1614.95 833 1615.91 833 1616.86 833 1617.82 833 1618.77 833 1619.72 833 1620.68 833 1621.63 833 1622.58 833 1623.54 833 1624.49 833 1625.45 833 1626.4 833 1627.35 833 1628.31 833 1629.26 833 1630.22 833 1631.17 833 1632.12 833 1633.08 833 1634.03 833 1634.98 833 1635.94 833 1636.89 833 1637.85 833 1638.8 833 1639.75 833 1640.71 833 1641.66 833 1642.62 833 1643.57 833 1644.52 833 1645.48 833 1646.43 833 1647.38 833 1648.34 833 1649.29 833 1650.25 833 1651.2 833 1652.15 833 1653.11 833 1654.06 833 1655.02 833 1655.97 833 1656.92 833 1657.88 833 1658.83 833 1659.78 833 1660.74 833 1661.69 833 1662.65 833 1663.6 833 1664.55 833 1665.51 833 1666.46 833 1667.42 833 1668.37 833 1669.32 833 1670.28 833 1671.23 833 1672.18 833 1673.14 833 1674.09 833 1675.05 833 1676 833 1676.95 833 1677.91 833 1678.86 833 1679.82 833 1680.77 833 1681.72 833 1682.68 833 1683.63 833 1684.58 833 1685.54 833 1686.49 833 1687.45 833 1688.4 833 1689.35 833 1690.31 833 1691.26 833 1692.22 833 1693.17 833 1694.12 833 1695.08 833 1696.03 833 1696.98 833 1697.94 833 1698.89 833 1699.85 833 1700.8 833 1701.75 833 1702.71 833 1703.66 833 1704.62 833 1705.57 833 1706.52 833 1707.48 833 1708.43 833 1709.38 833 1710.34 833 1711.29 833 1712.25 833 1713.2 833 1714.15 833 1715.11 833 1716.06 833 1717.02 833 1717.97 833 1718.92 833 1719.88 833 1720.83 833 1721.78 833 1722.74 833 1723.69 833 1724.65 833 1725.6 833 1726.55 833 1727.51 833 1728.46 833 1729.42 833 1730.37 833 1731.32 833 1732.28 833 1733.23 833 1734.18 833 1735.14 833 1736.09 833 1737.05 179" fill="none" fill-rule="evenodd"/></g><g stroke="#FFFFFF" fill="#FFFFFF"><path d="M1725 189 1725 83 1416 83 1416 189Z" stroke="none"/></g><g font-family="SansSerif" font-size="40" transform="translate(1474.8 110.598)"><text stroke="none" xml:space="preserve" x="0" y="16">load current</text></g><g stroke="#0072BD" stroke-width="6.6667" stroke-linecap="butt" stroke-linejoin="round" fill="#0072BD"><line x1="1421" y1="110.598" x2="1471.04" y2="110.598" fill="none"/></g><g font-family="SansSerif" font-size="40" transform="translate(1474.8 161.402)"><text stroke="none" xml:space="preserve" x="0" y="16">desire current</text></g><g stroke="#D95319" stroke-width="6.6667" stroke-linecap="butt" stroke-linejoin="bevel" stroke-miterlimit="1" stroke-dasharray="24 24" fill="#D95319"><line x1="1421" y1="161.402" x2="1471.04" y2="161.402" fill="none"/></g><g stroke="#262626" stroke-width="0.8333" stroke-linecap="butt" fill="#262626"><path d="M1416 189 1416 83 1725 83 1725 189Z" fill="none" fill-rule="evenodd"/></g></g></svg>