<svg width="489" height="269" xmlns="http://www.w3.org/2000/svg" xmlns:xlink="http://www.w3.org/1999/xlink" overflow="hidden"><defs><clipPath id="clip0"><rect x="352" y="36" width="489" height="269"/></clipPath><clipPath id="clip1"><rect x="353" y="36" width="487" height="268"/></clipPath><clipPath id="clip2"><rect x="353" y="36" width="487" height="269"/></clipPath></defs><g clip-path="url(#clip0)" transform="translate(-352 -36)"><g clip-path="url(#clip1)"><g clip-path="url(#clip2)"><path d="M0 0 549.736 0 549.736 267.996 0 267.996Z" fill="#FFFFFF" transform="matrix(1 0 0 1.00001 321.539 36)"/><path d="M0 0 549.736 0 549.736 267.996 0 267.996Z" fill="#FFFFFF" transform="matrix(1 0 0 1.00001 321.539 36)"/><path d="M71.5802 238.505 497.625 238.505 497.625 20.0425 71.5802 20.0425Z" fill="#FFFFFF" transform="matrix(1 0 0 1.00001 321.539 36)"/><path d="M71.5802 238.505 497.625 238.505" stroke="#262626" stroke-width="0.238591" stroke-linecap="square" stroke-linejoin="round" stroke-miterlimit="10" fill="none" transform="matrix(1 0 0 1.00001 321.539 36)"/><path d="M71.5802 20.0425 497.625 20.0425" stroke="#262626" stroke-width="0.238591" stroke-linecap="square" stroke-linejoin="round" stroke-miterlimit="10" fill="none" transform="matrix(1 0 0 1.00001 321.539 36)"/><path d="M123.932 238.505 123.932 234.245" stroke="#262626" stroke-width="0.238591" stroke-linecap="square" stroke-linejoin="round" stroke-miterlimit="10" fill="none" transform="matrix(1 0 0 1.00001 321.539 36)"/><path d="M180.536 238.505 180.536 234.245" stroke="#262626" stroke-width="0.238591" stroke-linecap="square" stroke-linejoin="round" stroke-miterlimit="10" fill="none" transform="matrix(1 0 0 1.00001 321.539 36)"/><path d="M237.139 238.505 237.139 234.245" stroke="#262626" stroke-width="0.238591" stroke-linecap="square" stroke-linejoin="round" stroke-miterlimit="10" fill="none" transform="matrix(1 0 0 1.00001 321.539 36)"/><path d="M293.742 238.505 293.742 234.245" stroke="#262626" stroke-width="0.238591" stroke-linecap="square" stroke-linejoin="round" stroke-miterlimit="10" fill="none" transform="matrix(1 0 0 1.00001 321.539 36)"/><path d="M350.345 238.505 350.345 234.245" stroke="#262626" stroke-width="0.238591" stroke-linecap="square" stroke-linejoin="round" stroke-miterlimit="10" fill="none" transform="matrix(1 0 0 1.00001 321.539 36)"/><path d="M406.948 238.505 406.948 234.245" stroke="#262626" stroke-width="0.238591" stroke-linecap="square" stroke-linejoin="round" stroke-miterlimit="10" fill="none" transform="matrix(1 0 0 1.00001 321.539 36)"/><path d="M463.55 238.505 463.55 234.245" stroke="#262626" stroke-width="0.238591" stroke-linecap="square" stroke-linejoin="round" stroke-miterlimit="10" fill="none" transform="matrix(1 0 0 1.00001 321.539 36)"/><path d="M123.932 20.0425 123.932 24.3029" stroke="#262626" stroke-width="0.238591" stroke-linecap="square" stroke-linejoin="round" stroke-miterlimit="10" fill="none" transform="matrix(1 0 0 1.00001 321.539 36)"/><path d="M180.536 20.0425 180.536 24.3029" stroke="#262626" stroke-width="0.238591" stroke-linecap="square" stroke-linejoin="round" stroke-miterlimit="10" fill="none" transform="matrix(1 0 0 1.00001 321.539 36)"/><path d="M237.139 20.0425 237.139 24.3029" stroke="#262626" stroke-width="0.238591" stroke-linecap="square" stroke-linejoin="round" stroke-miterlimit="10" fill="none" transform="matrix(1 0 0 1.00001 321.539 36)"/><path d="M293.742 20.0425 293.742 24.3029" stroke="#262626" stroke-width="0.238591" stroke-linecap="square" stroke-linejoin="round" stroke-miterlimit="10" fill="none" transform="matrix(1 0 0 1.00001 321.539 36)"/><path d="M350.345 20.0425 350.345 24.3029" stroke="#262626" stroke-width="0.238591" stroke-linecap="square" stroke-linejoin="round" stroke-miterlimit="10" fill="none" transform="matrix(1 0 0 1.00001 321.539 36)"/><path d="M406.948 20.0425 406.948 24.3029" stroke="#262626" stroke-width="0.238591" stroke-linecap="square" stroke-linejoin="round" stroke-miterlimit="10" fill="none" transform="matrix(1 0 0 1.00001 321.539 36)"/><path d="M463.55 20.0425 463.55 24.3029" stroke="#262626" stroke-width="0.238591" stroke-linecap="square" stroke-linejoin="round" stroke-miterlimit="10" fill="none" transform="matrix(1 0 0 1.00001 321.539 36)"/><text fill="#262626" font-family="Arial,Arial_MSFontService,sans-serif" font-weight="400" font-size="30" transform="matrix(0.286321 0 0 0.286325 439.458 286)">4<tspan font-size="30" x="17" y="0">.</tspan><tspan font-size="30" x="25" y="0">8</tspan><tspan font-size="30" x="210.192" y="0">5</tspan><tspan font-size="30" x="395.383" y="0">5</tspan><tspan font-size="30" x="412.383" y="0">.</tspan><tspan font-size="30" x="420.383" y="0">2</tspan><tspan font-size="30" x="593.076" y="0">5</tspan><tspan font-size="30" x="610.076" y="0">.</tspan><tspan font-size="30" x="618.076" y="0">4</tspan><tspan font-size="30" x="790.766" y="0">5</tspan><tspan font-size="30" x="807.766" y="0">.</tspan><tspan font-size="30" x="815.766" y="0">6</tspan><tspan font-size="30" x="988.456" y="0">5</tspan><tspan font-size="30" x="1005.46" y="0">.</tspan>8<tspan font-size="30" x="1198.65" y="0">6</tspan><tspan font-size="40" x="520.657" y="48.8955">time</tspan><tspan font-size="40" x="595.657" y="48.8955">(</tspan><tspan font-size="40" x="608.657" y="48.8955">s</tspan><tspan font-size="40" x="627.657" y="48.8955">)</tspan></text><path d="M71.5802 238.505 71.5802 20.0425" stroke="#262626" stroke-width="0.238591" stroke-linecap="square" stroke-linejoin="round" stroke-miterlimit="10" fill="none" transform="matrix(1 0 0 1.00001 321.539 36)"/><path d="M497.625 238.505 497.625 20.0425" stroke="#262626" stroke-width="0.238591" stroke-linecap="square" stroke-linejoin="round" stroke-miterlimit="10" fill="none" transform="matrix(1 0 0 1.00001 321.539 36)"/><path d="M71.5802 225.068 75.8406 225.068" stroke="#262626" stroke-width="0.238591" stroke-linecap="square" stroke-linejoin="round" stroke-miterlimit="10" fill="none" transform="matrix(1 0 0 1.00001 321.539 36)"/><path d="M71.5802 198.079 75.8406 198.079" stroke="#262626" stroke-width="0.238591" stroke-linecap="square" stroke-linejoin="round" stroke-miterlimit="10" fill="none" transform="matrix(1 0 0 1.00001 321.539 36)"/><path d="M71.5802 171.089 75.8406 171.089" stroke="#262626" stroke-width="0.238591" stroke-linecap="square" stroke-linejoin="round" stroke-miterlimit="10" fill="none" transform="matrix(1 0 0 1.00001 321.539 36)"/><path d="M71.5802 144.1 75.8406 144.1" stroke="#262626" stroke-width="0.238591" stroke-linecap="square" stroke-linejoin="round" stroke-miterlimit="10" fill="none" transform="matrix(1 0 0 1.00001 321.539 36)"/><path d="M71.5802 117.11 75.8406 117.11" stroke="#262626" stroke-width="0.238591" stroke-linecap="square" stroke-linejoin="round" stroke-miterlimit="10" fill="none" transform="matrix(1 0 0 1.00001 321.539 36)"/><path d="M71.5802 90.1209 75.8406 90.1209" stroke="#262626" stroke-width="0.238591" stroke-linecap="square" stroke-linejoin="round" stroke-miterlimit="10" fill="none" transform="matrix(1 0 0 1.00001 321.539 36)"/><path d="M71.5802 63.1314 75.8406 63.1314" stroke="#262626" stroke-width="0.238591" stroke-linecap="square" stroke-linejoin="round" stroke-miterlimit="10" fill="none" transform="matrix(1 0 0 1.00001 321.539 36)"/><path d="M71.5802 36.1417 75.8406 36.1417" stroke="#262626" stroke-width="0.238591" stroke-linecap="square" stroke-linejoin="round" stroke-miterlimit="10" fill="none" transform="matrix(1 0 0 1.00001 321.539 36)"/><path d="M497.625 225.068 493.365 225.068" stroke="#262626" stroke-width="0.238591" stroke-linecap="square" stroke-linejoin="round" stroke-miterlimit="10" fill="none" transform="matrix(1 0 0 1.00001 321.539 36)"/><path d="M497.625 198.079 493.365 198.079" stroke="#262626" stroke-width="0.238591" stroke-linecap="square" stroke-linejoin="round" stroke-miterlimit="10" fill="none" transform="matrix(1 0 0 1.00001 321.539 36)"/><path d="M497.625 171.089 493.365 171.089" stroke="#262626" stroke-width="0.238591" stroke-linecap="square" stroke-linejoin="round" stroke-miterlimit="10" fill="none" transform="matrix(1 0 0 1.00001 321.539 36)"/><path d="M497.625 144.1 493.365 144.1" stroke="#262626" stroke-width="0.238591" stroke-linecap="square" stroke-linejoin="round" stroke-miterlimit="10" fill="none" transform="matrix(1 0 0 1.00001 321.539 36)"/><path d="M497.625 117.11 493.365 117.11" stroke="#262626" stroke-width="0.238591" stroke-linecap="square" stroke-linejoin="round" stroke-miterlimit="10" fill="none" transform="matrix(1 0 0 1.00001 321.539 36)"/><path d="M497.625 90.1209 493.365 90.1209" stroke="#262626" stroke-width="0.238591" stroke-linecap="square" stroke-linejoin="round" stroke-miterlimit="10" fill="none" transform="matrix(1 0 0 1.00001 321.539 36)"/><path d="M497.625 63.1314 493.365 63.1314" stroke="#262626" stroke-width="0.238591" stroke-linecap="square" stroke-linejoin="round" stroke-miterlimit="10" fill="none" transform="matrix(1 0 0 1.00001 321.539 36)"/><path d="M497.625 36.1417 493.365 36.1417" stroke="#262626" stroke-width="0.238591" stroke-linecap="square" stroke-linejoin="round" stroke-miterlimit="10" fill="none" transform="matrix(1 0 0 1.00001 321.539 36)"/><text fill="#262626" font-family="Arial,Arial_MSFontService,sans-serif" font-weight="400" font-size="30" transform="matrix(0.286321 0 0 0.286325 380.712 265)">30<tspan font-size="30" x="0" y="-94.2985">35</tspan><tspan font-size="30" x="0" y="-188.597">40</tspan><tspan font-size="30" x="0" y="-282.896">45</tspan><tspan font-size="30" x="0" y="-377.194">50</tspan><tspan font-size="30" x="0" y="-471.493">55</tspan><tspan font-size="30" x="0" y="-565.791">60</tspan><tspan font-size="30" x="0" y="-660.09">65</tspan></text><text fill="#262626" font-family="Arial,Arial_MSFontService,sans-serif" font-weight="400" font-size="40" transform="matrix(1.75321e-17 -0.286325 0.286321 1.75323e-17 376.703 196)">current<tspan font-size="40" x="122.239" y="-7.48496e-15">(</tspan><tspan font-size="40" x="136.209" y="-8.34039e-15">mA</tspan><tspan font-size="40" x="195.582" y="-1.19759e-14">)</tspan></text><path d="M81.2415 20.0164 81.8935 20.3207 82.8028 20.902 83.7119 21.3871 84.6209 21.7232 85.53 22.1136 86.4394 22.5874 87.3484 23.4282 88.2575 23.9617 89.1666 24.4847 90.0759 24.9619 90.985 25.3932 91.8941 26.2129 92.8034 26.7531 93.7125 27.4674 94.6216 28.0699 95.5306 28.5545 96.4397 29.0581 97.3491 29.727 98.2581 30.4293 99.1672 30.9825 100.077 31.6711 100.986 32.3133 101.895 33.0652 102.804 33.8271 103.713 34.4398 104.622 35.3096 105.531 35.9138 106.44 36.6837 107.349 37.498 108.259 38.2018 109.168 38.8191 110.077 39.473 110.986 39.2474 111.895 39.2872 112.804 40.6066 113.713 42.7093 114.623 43.619 115.532 43.7939 116.441 44.2609 117.35 45.5805 118.259 46.7046 119.168 47.2217 120.077 47.7363 120.987 49.4026 121.896 50.5319 122.805 51.2362 123.714 51.6749 124.623 52.4033 125.532 53.8564 126.442 54.8668 127.351 55.4818 128.26 56.0942 129.169 56.997 130.078 58.187 130.987 58.9958 131.897 59.5948 132.806 60.4194 133.715 62.0526 134.624 63.0352 135.533 63.8515 136.442 64.7068 137.351 65.5858 138.26 66.7643 139.17 67.6264 140.079 68.7574 140.988 69.8846 141.897 70.8939 142.806 72.0125 143.715 73.0722 144.624 74.0915 145.533 74.9027 146.443 75.9649 147.352 76.8419 148.261 77.9242 149.17 78.849 150.079 79.5528 150.988 80.6474 151.897 81.7348 152.807 82.7713 153.716 83.5538 154.625 84.3438 155.534 85.8378 156.443 86.9868 157.352 87.8887 158.262 88.6558 159.171 89.8357 160.08 90.9567 160.989 92.0112 161.898 92.9443 162.807 93.8282 163.716 95.2263 164.626 96.229 165.535 97.2171 166.444 98.2132 167.353 99.2119 168.262 100.735 169.171 101.709 170.08 102.641 170.989 103.504 171.899 104.882 172.808 105.946 173.717 106.929 174.626 107.947 175.535 108.953 176.444 110.355 177.353 111.399 178.262 112.451 179.172 113.389 180.081 114.358 180.99 115.435 181.899 116.496 182.808 117.767 183.717 119.093 184.626 120.316 185.536 121.137 186.445 122.204 187.354 123.344 188.263 124.399 189.172 125.644 190.081 126.62 190.991 127.668 191.9 128.693 192.809 129.641 193.718 130.963 194.627 131.972 195.536 133.065 196.446 133.981 197.355 135.287 198.264 136.334 199.173 137.421 200.082 138.427 200.991 139.406 201.9 140.661 202.81 141.676 203.719 142.728 204.628 143.672 205.537 144.581 206.446 145.901 207.355 146.956 208.264 147.961 209.173 148.96 210.083 150.123 210.992 151.073 211.901 152.159 212.81 153.175 213.719 153.998 214.628 155.165 215.537 156.218 216.446 157.284 217.356 158.204 218.265 159.035 219.174 160.305 220.083 161.307 220.992 162.248 221.901 163.036 222.811 164.19 223.72 165.265 224.629 166.316 225.538 167.135 226.447 167.863 227.356 169.062 228.265 170.102 229.175 171.008 230.084 171.767 230.993 172.529 231.902 173.854 232.811 174.869 233.72 175.691 234.629 176.376 235.539 177.306 236.448 178.269 237.357 71.3016 238.266 81.7094 239.175 107.683 240.084 157.643 240.993 190.049 241.902 206.083 242.812 204.494 243.721 192.024 244.63 177.653 245.539 179.809 246.448 188.175 247.357 195.827 248.266 196.618 249.176 191.768 250.085 187.613 250.994 187.492 251.903 190.995 252.812 196.469 253.721 197.56 254.63 196.219 255.54 194.459 256.449 194.297 257.358 196.923 258.267 199.222 259.176 200.102 260.085 199.798 260.995 199.268 261.904 200.179 262.813 201.718 263.722 203.069 264.631 203.656 265.54 203.71 266.449 203.825 267.359 204.396 268.268 205.325 269.177 206.269 270.086 207.099 270.995 207.529 271.904 207.854 272.813 208.223 273.722 208.953 274.632 209.725 275.541 210.272 276.45 210.566 277.359 211.044 278.268 211.988 279.177 212.703 280.086 213.072 280.995 213.286 281.905 213.589 282.814 214.391 283.723 215.083 284.632 215.548 285.541 215.815 286.45 216.104 287.36 216.654 288.268 217.285 289.178 217.754 290.086 217.868 290.996 218.126 291.904 218.596 292.814 219.366 293.722 219.94 294.633 219.993 295.543 219.665 296.451 219.629 297.361 220.193 298.269 220.986 299.179 221.788 300.087 221.874 300.998 221.775 301.905 221.779 302.816 222.084 303.723 222.675 304.634 222.985 305.541 223.063 306.452 223.048 307.36 223.158 308.27 223.674 309.178 224.124 310.088 224.276 310.996 224.159 311.906 224.039 312.817 224.333 313.724 224.655 314.635 224.723 315.543 224.636 316.453 224.701 317.361 224.794 318.271 224.879 319.179 224.965 320.089 224.96 320.997 224.991 321.908 225.146 322.815 225.348 323.726 225.434 324.633 225.247 325.544 225.013 326.451 224.798 327.362 224.709 328.27 224.803 329.18 224.674 330.091 224.485 330.998 224.42 331.909 224.497 332.816 224.48 333.727 224.457 334.634 224.355 335.545 224.274 336.453 224.104 337.363 223.665 338.271 223.443 339.181 223.229 340.089 223.13 340.999 222.941 341.907 222.688 342.818 222.454 343.725 222.262 344.636 222.044 345.543 221.719 346.454 221.369 347.364 221.226 348.272 220.978 349.182 220.469 350.09 219.736 351.001 219.46 351.908 219.552 352.819 219.617 353.726 219.217 354.637 218.179 355.545 217.653 356.455 217.757 357.363 217.861 358.273 217.386 359.181 216.285 360.091 215.612 360.999 215.286 361.909 215.106 362.817 214.876 363.728 214.395 364.638 213.692 365.546 213.045 366.456 212.658 367.364 212.284 368.274 212.011 369.182 211.572 370.092 210.995 371 210.317 371.911 209.515 372.818 209.151 373.729 208.713 374.636 208.165 375.547 207.13 376.455 206.527 377.365 206.082 378.273 205.64 379.183 204.984 380.091 203.855 381.001 203.353 381.909 203.021 382.819 202.441 383.73 201.505 384.638 200.406 385.548 199.933 386.456 199.526 387.366 198.977 388.274 197.959 389.184 197.132 390.092 196.347 391.002 195.663 391.91 195.07 392.821 194.368 393.728 194.06 394.639 193.79 395.546 193.394 396.457 192.654 397.365 191.374 398.275 190.45 399.183 189.576 400.093 188.774 401.004 187.569 401.911 186.617 402.822 185.718 403.729 184.982 404.64 184.236 405.548 182.966 406.458 182.103 407.366 181.356 408.276 180.513 409.184 179.671 410.094 178.564 411.002 177.75 411.912 176.866 412.82 176.07 413.731 174.984 414.638 174.123 415.549 173.113 416.456 172.151 417.367 171.254 418.277 170.083 419.185 169.283 420.096 168.513 421.003 167.557 421.914 166.563 422.821 165.372 423.732 164.671 424.639 163.758 425.55 162.606 426.458 161.367 427.368 160.649 428.276 159.848 429.186 158.811 430.094 157.863 431.004 156.821 431.912 156.181 432.823 155.787 433.73 155.657 434.641 155.72 435.551 155.007 436.459 153.782 437.369 152.309 438.277 151.42 439.187 150.874 440.095 149.884 441.006 148.083 441.913 145.907 442.824 144.481 443.731 143.474 444.642 142.496 445.549 140.924 446.46 139.558 447.368 138.647 448.278 137.516 449.186 136.282 450.096 135.033 451.004 134.024 451.914 132.833 452.822 131.86 453.732 130.739 454.643 129.669 455.551 128.673 456.461 127.381 457.369 126.231 458.279 125.112 459.187 124.174 460.097 123.315 461.005 121.848 461.916 120.683 462.823 119.646 463.734 118.776 464.641 117.525 465.552 116.505 466.459 115.442 467.37 114.379 468.278 113.317 469.188 111.918 470.096 110.852 471.006 109.776 471.917 108.793 472.824 107.968 473.735 106.705 474.642 105.51 475.553 104.509 476.461 103.535 477.371 102.347 478.279 101.227 479.189 100.177 480.097 99.1116 481.007 98.277 481.915 96.9333 482.826 95.9026 483.733 94.877 484.644 93.9181 485.551 92.8696 486.462 91.4606 487.369 90.5687 488.28 89.653 489.19 88.6501 490.098 87.2571 491.009 86.2278 491.916 85.3141 492.827 84.393 493.734 83.3989 494.645 82.0996 495.552 81.1422 496.463 80.1907 497.371 79.2258 497.677 78.9372" stroke="#0072BD" stroke-width="1.90881" stroke-linejoin="round" stroke-miterlimit="10" fill="none" fill-rule="evenodd" transform="matrix(1 0 0 1.00001 321.539 36)"/><path d="M80.0836 20.0164 80.9844 20.4614 81.8935 20.9191 82.8028 21.5425 83.7119 22.02 84.6209 22.506 85.53 23.0004 86.4394 23.5031 87.3484 24.1863 88.2575 24.7084 89.1666 25.2387 90.0759 25.7771 90.985 26.3236 91.8941 27.0649 92.8034 27.6302 93.7125 28.2034 94.6216 28.7847 95.5306 29.5715 96.4397 30.1708 97.3491 30.778 98.2581 31.3928 99.1672 32.015 100.077 32.8567 100.986 33.4967 101.895 34.1437 102.804 34.7986 103.713 35.4605 104.622 36.3544 105.531 37.0333 106.44 37.7193 107.349 38.4122 108.259 39.3471 109.168 40.0563 110.077 40.7726 110.986 41.4953 111.895 42.2249 112.804 43.2081 113.713 43.9531 114.623 44.7044 115.532 45.4623 116.441 46.2268 117.35 47.2555 118.259 48.0343 119.168 48.8194 120.077 49.6102 120.987 50.6745 121.896 51.4793 122.805 52.2902 123.714 53.1068 124.623 53.9288 125.532 55.034 126.442 55.8692 127.351 56.7098 128.26 57.5556 129.169 58.4071 130.078 59.5501 130.987 60.4134 131.897 61.2818 132.806 62.1554 133.715 63.3273 134.624 64.2117 135.533 65.101 136.442 65.9949 137.351 66.8937 138.26 68.0985 139.17 69.0073 140.079 69.9201 140.988 70.8375 141.897 71.7589 142.806 72.9935 143.715 73.924 144.624 74.8583 145.533 75.7965 146.443 77.0532 147.352 77.9998 148.261 78.9498 149.17 79.9032 150.079 80.8601 150.988 82.1408 151.897 83.1049 152.807 84.0721 153.716 85.0424 154.625 86.0153 155.534 87.3167 156.443 88.2962 157.352 89.278 158.262 90.2623 159.171 91.5783 160.08 92.5681 160.989 93.5599 161.898 94.554 162.807 95.5501 163.716 96.8809 164.626 97.8813 165.535 98.8834 166.444 99.887 167.353 100.892 168.262 102.235 169.171 103.243 170.08 104.253 170.989 105.264 171.899 106.613 172.808 107.626 173.717 108.64 174.626 109.655 175.535 110.67 176.444 112.025 177.353 113.041 178.262 114.058 179.172 115.075 180.081 116.093 180.99 117.449 181.899 118.467 182.808 119.484 183.717 120.501 184.626 121.857 185.536 122.873 186.445 123.889 187.354 124.904 188.263 125.919 189.172 127.27 190.081 128.283 190.991 129.294 191.9 130.305 192.809 131.314 193.718 132.657 194.627 133.664 195.536 134.668 196.446 135.671 197.355 137.006 198.264 138.005 199.173 139.003 200.082 139.998 200.991 140.991 201.9 142.313 202.81 143.301 203.719 144.287 204.628 145.27 205.537 146.251 206.446 147.555 207.355 148.53 208.264 149.502 209.173 150.471 210.083 151.759 210.992 152.721 211.901 153.68 212.81 154.636 213.719 155.588 214.628 156.852 215.537 157.797 216.446 158.737 217.356 159.674 218.265 160.607 219.174 161.845 220.083 162.769 220.992 163.689 221.901 164.605 222.811 165.82 223.72 166.726 224.629 167.627 225.538 168.524 226.447 169.416 227.356 170.599 228.265 171.48 229.175 172.357 230.084 173.229 230.993 174.095 231.902 175.243 232.811 176.098 233.72 176.947 234.629 177.792 235.539 178.909 236.448 179.74 237.357 180.566 238.266 181.387 239.175 182.201 240.084 183.279 240.993 184.08 241.902 184.874 242.812 185.664 243.721 186.447 244.63 187.481 245.539 188.249 246.448 189.011 247.357 189.767 248.266 190.765 249.176 191.506 250.085 192.24 250.994 192.967 251.903 193.687 252.812 194.638 253.721 195.342 254.63 196.04 255.54 196.731 256.449 197.414 257.358 198.315 258.267 198.981 259.176 199.641 260.085 200.293 260.995 201.151 261.904 201.786 262.813 202.414 263.722 203.033 264.631 203.646 265.54 204.45 266.449 205.044 267.359 205.631 268.268 206.209 269.177 206.78 270.086 207.528 270.995 208.08 271.904 208.624 272.813 209.16 273.722 209.861 274.632 210.378 275.541 210.886 276.45 211.386 277.359 211.877 278.268 212.52 279.177 212.992 280.086 213.455 280.995 213.91 281.905 214.356 282.814 214.938 283.723 215.363 284.632 215.781 285.541 216.189 286.45 216.72 287.36 217.108 288.268 217.487 289.178 217.857 290.086 218.218 290.996 218.686 291.904 219.026 292.814 219.357 293.722 219.679 294.633 219.992 295.543 220.395 296.451 220.687 297.361 220.969 298.269 221.242 299.179 221.592 300.087 221.843 300.998 222.085 301.905 222.318 302.816 222.542 303.723 222.825 304.634 223.027 305.541 223.219 306.452 223.402 307.36 223.575 308.27 223.792 309.178 223.943 310.088 224.085 310.996 224.217 311.906 224.378 312.817 224.489 313.724 224.589 314.635 224.68 315.543 224.762 316.453 224.855 317.361 224.914 318.271 224.964 319.179 225.004 320.089 225.034 320.997 225.06 321.908 225.068 322.815 225.066 323.726 225.055 324.633 225.025 325.544 224.991 326.451 224.948 327.362 224.896 328.27 224.833 329.18 224.735 330.091 224.651 330.998 224.557 331.909 224.453 332.816 224.34 333.727 224.174 334.634 224.039 335.545 223.894 336.453 223.739 337.363 223.518 338.271 223.342 339.181 223.156 340.089 222.961 340.999 222.756 341.907 222.468 342.818 222.242 343.725 222.006 344.636 221.76 345.543 221.506 346.454 221.152 347.364 220.876 348.272 220.59 349.182 220.296 350.09 219.889 351.001 219.573 351.908 219.248 352.819 218.914 353.726 218.57 354.637 218.099 355.545 217.735 356.455 217.362 357.363 216.98 358.273 216.589 359.181 216.054 360.091 215.643 360.999 215.222 361.909 214.794 362.817 214.208 363.728 213.759 364.638 213.302 365.546 212.835 366.456 212.361 367.364 211.714 368.274 211.22 369.182 210.717 370.092 210.206 371 209.687 371.911 208.982 372.818 208.444 373.729 207.897 374.636 207.342 375.547 206.59 376.455 206.017 377.365 205.436 378.273 204.847 379.183 204.25 380.091 203.443 381.001 202.828 381.909 202.205 382.819 201.576 383.73 200.938 384.638 200.077 385.548 199.422 386.456 198.76 387.366 198.091 388.274 197.187 389.184 196.501 390.092 195.808 391.002 195.108 391.91 194.401 392.821 193.448 393.728 192.725 394.639 191.996 395.546 191.259 396.457 190.517 397.365 189.516 398.275 188.758 399.183 187.994 400.093 187.223 401.004 186.186 401.911 185.401 402.822 184.61 403.729 183.813 404.64 183.01 405.548 181.93 406.458 181.114 407.366 180.292 408.276 179.464 409.184 178.63 410.094 177.511 411.002 176.665 411.912 175.814 412.82 174.957 413.731 173.807 414.638 172.939 415.549 172.065 416.456 171.187 417.367 170.304 418.277 169.119 419.185 168.225 420.096 167.327 421.003 166.424 421.914 165.517 422.821 164.3 423.732 163.383 424.639 162.462 425.55 161.536 426.458 160.297 427.368 159.362 428.276 158.424 429.186 157.482 430.094 156.537 431.004 155.271 431.912 154.317 432.823 153.361 433.73 152.401 434.641 151.437 435.551 150.148 436.459 149.178 437.369 148.205 438.277 147.23 439.187 145.925 440.095 144.943 441.006 143.958 441.913 142.972 442.824 141.983 443.731 140.661 444.642 139.667 445.549 138.671 446.46 137.673 447.368 136.673 448.278 135.337 449.186 134.333 450.096 133.328 451.004 132.322 451.914 130.977 452.822 129.968 453.732 128.957 454.643 127.945 455.551 126.932 456.461 125.581 457.369 124.566 458.279 123.551 459.187 122.535 460.097 121.518 461.005 120.162 461.916 119.145 462.823 118.128 463.734 117.11 464.641 115.754 465.552 114.736 466.459 113.719 467.37 112.702 468.278 111.686 469.188 110.331 470.096 109.316 471.006 108.302 471.917 107.288 472.824 106.275 473.735 104.927 474.642 103.916 475.553 102.907 476.461 101.899 477.371 100.557 478.279 99.5523 479.189 98.549 480.097 97.5478 481.007 96.5479 481.915 95.2177 482.826 94.2224 483.733 93.2292 484.644 92.2379 485.551 91.249 486.462 89.9339 487.369 88.9504 488.28 87.9695 489.19 86.9908 490.098 85.6907 491.009 84.7186 491.916 83.7494 492.827 82.7833 493.734 81.8202 494.645 80.5409 495.552 79.5851 496.463 78.6328 497.371 77.684 497.677 77.3667" stroke="#D95319" stroke-width="1.90881" stroke-linejoin="bevel" stroke-miterlimit="1" stroke-dasharray="6.8717 6.8717" fill="none" fill-rule="evenodd" transform="matrix(1 0 0 1.00001 321.539 36)"/><path d="M493.903 54.1146 493.903 23.7646 405.43 23.7646 405.43 54.1146Z" fill="#FFFFFF" transform="matrix(1 0 0 1.00001 321.539 36)"/><text font-family="Arial,Arial_MSFontService,sans-serif" font-weight="400" font-size="40" transform="matrix(0.286321 0 0 0.286325 743.804 72)">load current</text><path d="M406.862 31.6665 421.189 31.6665" stroke="#0072BD" stroke-width="1.90881" stroke-linejoin="round" stroke-miterlimit="10" fill="none" transform="matrix(1 0 0 1.00001 321.539 36)"/><text font-family="Arial,Arial_MSFontService,sans-serif" font-weight="400" font-size="40" transform="matrix(0.286321 0 0 0.286325 743.804 87)">desire current</text><path d="M406.862 46.2127 421.189 46.2127" stroke="#D95319" stroke-width="1.90881" stroke-linejoin="bevel" stroke-miterlimit="1" stroke-dasharray="6.8717 6.8717" fill="none" transform="matrix(1 0 0 1.00001 321.539 36)"/><path d="M405.43 54.1146 405.43 23.7646 493.903 23.7646 493.903 54.1146Z" stroke="#262626" stroke-width="0.238591" stroke-miterlimit="10" fill="none" fill-rule="evenodd" transform="matrix(1 0 0 1.00001 321.539 36)"/></g></g></g></svg>